<?xml version="1.0" encoding="iso-8859-1"?>
<!-- Generator: Adobe Illustrator 19.0.0, SVG Export Plug-In . SVG Version: 6.00 Build 0)  -->
<svg version="1.1" id="Capa_1" xmlns="http://www.w3.org/2000/svg" xmlns:xlink="http://www.w3.org/1999/xlink" x="0px" y="0px"
	 viewBox="0 0 512 512" style="enable-background:new 0 0 512 512;" xml:space="preserve">
<g>
	<g>
		<g>
			<path d="M0,0v512h512V0H0z M480,480H32V96h288V64H32V32h448V480z"/>
			<polygon points="126.208,187.728 65.008,269.328 126.208,350.944 151.792,331.728 105.008,269.328 151.792,206.944 			"/>
			<polygon points="407.008,269.328 360.208,331.728 385.792,350.944 447.008,269.328 385.792,187.728 360.208,206.944 			"/>
			
				<rect x="141.788" y="253.268" transform="matrix(-0.5914 0.8064 -0.8064 -0.5914 637.2537 215.6244)" width="244.415" height="32"/>
			<rect x="416" y="64" width="32" height="32"/>
			<rect x="352" y="64" width="32" height="32"/>
		</g>
	</g>
</g>
<g>
</g>
<g>
</g>
<g>
</g>
<g>
</g>
<g>
</g>
<g>
</g>
<g>
</g>
<g>
</g>
<g>
</g>
<g>
</g>
<g>
</g>
<g>
</g>
<g>
</g>
<g>
</g>
<g>
</g>
</svg>
